<?xml version="1.0" standalone="no"?>
<!DOCTYPE svg PUBLIC "-//W3C//DTD SVG 20010904//EN"
 "http://www.w3.org/TR/2001/REC-SVG-20010904/DTD/svg10.dtd">
<svg version="1.0" xmlns="http://www.w3.org/2000/svg"
 width="1920.000000pt" height="1080.000000pt" viewBox="0 0 1920.000000 1080.000000"
 preserveAspectRatio="xMidYMid meet">

<g transform="translate(0.000000,1080.000000) scale(0.100000,-0.100000)"
fill="#000000" stroke="none">
<path d="M10665 10356 c-63 -21 -283 -126 -795 -379 -386 -190 -417 -212 -477
-335 -38 -75 -38 -78 -37 -192 1 -163 -21 -65 390 -1760 109 -448 174 -715
263 -1085 340 -1411 546 -2246 560 -2270 41 -72 139 -97 220 -56 36 19 90 73
121 121 8 13 45 58 82 101 123 141 236 193 369 169 33 -6 73 -16 87 -23 95
-41 242 -177 285 -265 42 -83 52 -139 51 -277 -1 -151 -21 -241 -83 -371 -82
-171 -171 -254 -275 -254 -62 0 -109 21 -176 78 -81 71 -111 90 -187 119 -94
36 -237 38 -334 5 -89 -30 -137 -63 -247 -169 -151 -145 -217 -175 -566 -259
-824 -199 -867 -212 -1626 -500 -36 -14 -90 -34 -120 -45 -104 -39 -265 -90
-395 -124 -107 -28 -783 -189 -1010 -240 -33 -7 -496 -117 -1030 -245 -533
-127 -1044 -248 -1135 -270 -230 -54 -820 -195 -967 -230 -67 -17 -124 -30
-127 -30 -2 0 -17 21 -34 47 -16 27 -55 89 -86 140 -32 50 -66 99 -77 109 -10
9 -41 19 -68 22 -44 4 -59 0 -118 -33 -153 -83 -264 -189 -326 -310 -27 -53
-31 -73 -35 -166 -7 -166 38 -290 140 -384 150 -139 422 -150 590 -24 49 36
74 63 138 149 54 72 87 104 125 121 67 30 482 131 2340 575 1988 475 1959 468
2321 514 484 61 713 105 1199 230 761 196 1053 247 1355 236 210 -7 337 -27
755 -121 456 -102 904 -208 1060 -252 328 -91 768 -252 1101 -403 155 -70 497
-248 603 -314 20 -12 61 -35 91 -50 30 -16 84 -47 120 -69 59 -36 90 -54 189
-112 42 -25 214 -130 261 -160 31 -19 134 -84 240 -150 19 -12 102 -67 183
-121 82 -54 170 -112 195 -129 51 -32 244 -166 302 -209 19 -14 46 -34 59 -43
14 -10 54 -41 90 -68 139 -106 189 -122 264 -86 36 18 49 31 66 71 12 27 21
59 21 71 0 25 -107 349 -146 442 -47 112 -80 142 -339 309 -38 24 -90 57 -115
72 -86 53 -325 202 -387 241 -34 22 -95 60 -134 85 -40 25 -89 56 -108 69
-141 97 -724 407 -901 480 -515 213 -741 288 -1238 411 -151 38 -275 70 -276
72 -6 7 16 177 35 273 11 55 34 138 51 185 17 47 46 128 65 180 l34 95 -4 172
c-7 237 1 286 69 446 113 264 125 293 144 362 24 85 27 251 5 342 -19 82 -47
140 -117 246 -101 152 -143 254 -173 417 -52 286 -118 424 -249 521 -89 66
-274 169 -433 241 -208 95 -265 131 -357 221 -96 95 -144 182 -170 309 -30
148 -28 163 145 777 23 84 29 124 29 207 0 172 -51 295 -173 418 -66 66 -123
99 -322 186 -11 5 -105 46 -210 92 -219 95 -271 126 -364 218 -186 182 -215
382 -107 756 19 65 62 223 96 349 57 211 62 236 57 302 -7 88 -38 143 -109
186 -55 34 -141 44 -203 23z m147 -166 c11 -13 18 -39 18 -64 0 -37 -101 -431
-165 -641 -79 -263 -67 -515 32 -684 128 -220 218 -280 763 -516 154 -66 209
-96 260 -141 93 -85 152 -252 132 -374 -5 -30 -49 -199 -98 -375 -86 -314 -88
-322 -87 -430 0 -218 76 -400 227 -546 88 -86 145 -121 381 -235 313 -150 447
-236 507 -325 44 -64 70 -144 98 -299 37 -202 86 -326 200 -504 82 -130 96
-164 111 -268 18 -134 0 -202 -145 -529 -82 -186 -86 -207 -86 -461 l0 -218
-54 -144 c-65 -170 -79 -220 -106 -386 -37 -230 -24 -307 59 -350 21 -10 148
-46 282 -79 477 -118 727 -198 1100 -351 320 -132 796 -378 1024 -530 22 -15
58 -38 80 -52 47 -29 610 -382 705 -442 36 -22 70 -44 75 -48 6 -5 33 -23 60
-41 28 -19 62 -54 77 -78 28 -45 163 -427 155 -436 -5 -4 -62 34 -97 65 -53
45 -87 71 -187 140 -62 42 -143 98 -180 125 -38 26 -99 68 -138 93 -38 26 -72
50 -75 54 -3 4 -21 15 -40 25 -19 10 -69 41 -110 69 -41 28 -84 56 -95 62 -20
11 -255 158 -350 219 -50 32 -180 110 -245 147 -19 11 -87 51 -150 88 -63 37
-146 84 -185 105 -38 21 -81 46 -95 55 -14 10 -104 58 -200 108 -456 236
-1044 464 -1514 587 -357 93 -1221 291 -1422 325 -194 33 -404 45 -576 31
-293 -23 -510 -66 -1143 -226 -553 -140 -734 -175 -1200 -235 -411 -52 -296
-27 -2235 -490 -349 -83 -707 -169 -795 -190 -648 -154 -1427 -344 -1550 -376
-55 -15 -122 -38 -149 -51 -61 -31 -137 -102 -186 -173 -49 -72 -117 -134
-166 -151 -48 -17 -184 -17 -243 0 -61 18 -132 91 -161 167 -30 80 -32 191 -3
254 22 48 37 68 108 140 48 50 187 138 192 123 2 -5 26 -45 53 -89 27 -43 64
-103 82 -133 36 -58 86 -91 138 -91 18 0 68 9 113 21 45 11 240 58 432 104
193 45 458 109 590 140 437 104 636 152 1070 255 766 181 885 210 1210 286
504 118 567 133 785 186 196 48 450 126 590 181 490 192 684 260 965 340 105
30 289 78 410 107 708 167 715 170 955 395 105 98 156 120 275 119 66 0 90 -5
138 -28 32 -15 72 -41 90 -58 18 -17 59 -48 92 -69 152 -101 316 -91 453 27
55 47 138 171 182 272 60 140 84 254 84 412 1 147 -10 207 -54 307 -62 138
-189 274 -311 335 -122 60 -134 63 -269 63 -115 0 -130 -2 -183 -27 -116 -55
-197 -127 -317 -286 -99 -130 -97 -132 -154 110 -26 112 -70 293 -98 403 -27
110 -58 236 -68 280 -10 44 -77 321 -148 615 -72 294 -178 733 -237 975 -58
242 -144 595 -190 785 -46 190 -118 487 -160 660 -42 173 -105 434 -141 580
-113 462 -125 571 -76 668 46 92 48 93 752 435 196 94 395 190 420 200 29 12
94 -1 112 -23z"/>
<path d="M9511 7528 c-31 -9 -33 -11 -27 -41 8 -42 15 -46 54 -35 35 9 38 19
19 59 -11 24 -15 25 -46 17z"/>
<path d="M9337 7483 c-11 -3 -16 -11 -13 -21 17 -63 16 -62 44 -56 39 9 45 18
37 53 -7 31 -21 36 -68 24z"/>
<path d="M9452 7428 c-29 -8 -32 -12 -26 -36 9 -39 18 -45 54 -37 29 6 31 9
25 38 -9 42 -14 46 -53 35z"/>
<path d="M9541 7373 c-20 -4 -22 -9 -17 -35 3 -17 6 -35 6 -40 0 -10 59 -1 73
11 4 4 4 22 1 39 -7 32 -12 34 -63 25z"/>
<path d="M9389 7329 c-25 -9 -26 -12 -16 -45 10 -32 13 -34 41 -28 40 8 39 7
32 49 -7 37 -14 40 -57 24z"/>
<path d="M9477 7273 c-13 -3 -15 -11 -11 -29 13 -50 10 -57 -25 -66 -31 -8
-33 -11 -27 -40 8 -41 8 -40 50 -32 32 5 36 9 30 28 -15 45 -10 59 24 68 33 9
36 16 26 56 -6 22 -25 26 -67 15z"/>
<path d="M9588 7218 c-31 -11 -32 -15 -18 -53 9 -24 14 -26 43 -20 41 9 39 7
32 49 -8 38 -13 40 -57 24z"/>
<path d="M9802 6323 c-41 -71 -35 -69 -91 -34 -59 36 -57 35 -64 17 -7 -17
106 -88 126 -80 18 7 79 112 72 124 -11 17 -21 11 -43 -27z"/>
<path d="M9819 6210 c-17 -28 -33 -50 -35 -50 -2 0 -25 13 -52 30 -26 16 -51
25 -56 20 -13 -13 0 -26 61 -61 l56 -32 21 26 c12 15 31 44 43 66 19 33 20 40
8 45 -11 4 -25 -10 -46 -44z"/>
<path d="M9844 6109 c-15 -27 -32 -49 -37 -49 -5 0 -21 8 -35 19 -52 36 -69
42 -76 26 -3 -9 14 -26 52 -50 31 -19 62 -35 68 -35 11 0 84 108 84 123 0 3
-6 7 -13 10 -9 3 -25 -13 -43 -44z"/>
</g>
</svg>
